<svg xmlns="http://www.w3.org/2000/svg" width="512" height="512" viewBox="0 0 512 512">
  <defs>
    <linearGradient id="bg" x1="0" y1="0" x2="1" y2="1">
      <stop offset="0" stop-color="#dffaf4"/>
      <stop offset="0.55" stop-color="#c9f5fb"/>
      <stop offset="1" stop-color="#ffe5f2"/>
    </linearGradient>
    <radialGradient id="orb" cx="38%" cy="30%" r="72%">
      <stop offset="0" stop-color="#ffffff"/>
      <stop offset="0.48" stop-color="#b9edf8"/>
      <stop offset="1" stop-color="#f58bc3"/>
    </radialGradient>
  </defs>
  <rect width="512" height="512" rx="112" fill="url(#bg)"/>
  <circle cx="256" cy="238" r="132" fill="url(#orb)" stroke="#ffffff" stroke-width="14"/>
  <path d="M365 82l13 34 34 13-34 13-13 34-13-34-34-13 34-13z" fill="#7ed9e7"/>
  <path d="M133 319l9 23 23 9-23 9-9 23-9-23-23-9 23-9z" fill="#ffffff"/>
  <path d="M235 187v103c0 26-20 47-46 47-19 0-34-12-34-29 0-19 18-34 41-34 8 0 15 2 21 5V169l104-23v96c0 26-20 47-46 47-19 0-34-12-34-29 0-19 18-34 41-34 8 0 15 2 21 5v-61z" fill="#ffffff"/>
  <rect x="122" y="406" width="268" height="42" rx="21" fill="#ffffff" fill-opacity="0.86"/>
  <text x="256" y="434" text-anchor="middle" font-family="Arial, sans-serif" font-size="21" font-weight="700" letter-spacing="5" fill="#121923">IDOL DANCE</text>
</svg>
